<svg id="visual" viewBox="0 0 900 600" width="900" height="600" xmlns="http://www.w3.org/2000/svg" xmlns:xlink="http://www.w3.org/1999/xlink" version="1.1"><rect x="0" y="0" width="900" height="600" fill="#0A1636"></rect><defs><linearGradient id="grad1_0" x1="33.3%" y1="100%" x2="100%" y2="0%"><stop offset="20%" stop-color="#11f8dd" stop-opacity="1"></stop><stop offset="80%" stop-color="#11f8dd" stop-opacity="1"></stop></linearGradient></defs><defs><linearGradient id="grad1_1" x1="33.3%" y1="100%" x2="100%" y2="0%"><stop offset="20%" stop-color="#11f8dd" stop-opacity="1"></stop><stop offset="80%" stop-color="#00a7c3" stop-opacity="1"></stop></linearGradient></defs><defs><linearGradient id="grad1_2" x1="33.3%" y1="100%" x2="100%" y2="0%"><stop offset="20%" stop-color="#005986" stop-opacity="1"></stop><stop offset="80%" stop-color="#00a7c3" stop-opacity="1"></stop></linearGradient></defs><defs><linearGradient id="grad1_3" x1="33.3%" y1="100%" x2="100%" y2="0%"><stop offset="20%" stop-color="#005986" stop-opacity="1"></stop><stop offset="80%" stop-color="#0a1636" stop-opacity="1"></stop></linearGradient></defs><defs><linearGradient id="grad2_0" x1="0%" y1="100%" x2="66.7%" y2="0%"><stop offset="20%" stop-color="#11f8dd" stop-opacity="1"></stop><stop offset="80%" stop-color="#11f8dd" stop-opacity="1"></stop></linearGradient></defs><defs><linearGradient id="grad2_1" x1="0%" y1="100%" x2="66.7%" y2="0%"><stop offset="20%" stop-color="#00a7c3" stop-opacity="1"></stop><stop offset="80%" stop-color="#11f8dd" stop-opacity="1"></stop></linearGradient></defs><defs><linearGradient id="grad2_2" x1="0%" y1="100%" x2="66.7%" y2="0%"><stop offset="20%" stop-color="#00a7c3" stop-opacity="1"></stop><stop offset="80%" stop-color="#005986" stop-opacity="1"></stop></linearGradient></defs><defs><linearGradient id="grad2_3" x1="0%" y1="100%" x2="66.7%" y2="0%"><stop offset="20%" stop-color="#0a1636" stop-opacity="1"></stop><stop offset="80%" stop-color="#005986" stop-opacity="1"></stop></linearGradient></defs><g transform="translate(900, 600)"><path d="M-540.8 0C-488.6 -22.9 -436.4 -45.7 -407.9 -64.6C-379.5 -83.5 -374.8 -98.5 -392.8 -127.6C-410.8 -156.8 -451.5 -200.2 -466 -237.4C-480.5 -274.7 -468.6 -305.9 -437.5 -317.9C-406.5 -329.9 -356.1 -322.8 -321 -321C-286 -319.2 -266.2 -322.7 -260.4 -358.4C-254.6 -394.1 -262.7 -462.1 -244.2 -479.4C-225.8 -496.7 -180.8 -463.3 -150.2 -462.2C-119.6 -461.1 -103.5 -492.2 -80.9 -510.6C-58.3 -529.1 -29.1 -535 0 -540.8L0 0Z" fill="#00365f"></path><path d="M-405.6 0C-366.5 -17.1 -327.3 -34.3 -305.9 -48.5C-284.6 -62.6 -281.1 -73.8 -294.6 -95.7C-308.1 -117.6 -338.7 -150.1 -349.5 -178.1C-360.3 -206 -351.5 -229.4 -328.2 -238.4C-304.8 -247.4 -267.1 -242.1 -240.8 -240.8C-214.5 -239.4 -199.7 -242 -195.3 -268.8C-190.9 -295.6 -197 -346.5 -183.2 -359.5C-169.3 -372.5 -135.6 -347.5 -112.6 -346.7C-89.7 -345.8 -77.6 -369.1 -60.7 -383C-43.7 -396.8 -21.8 -401.2 0 -405.6L0 0Z" fill="#007fa8"></path><path d="M-270.4 0C-244.3 -11.4 -218.2 -22.9 -204 -32.3C-189.7 -41.8 -187.4 -49.2 -196.4 -63.8C-205.4 -78.4 -225.8 -100.1 -233 -118.7C-240.2 -137.4 -234.3 -152.9 -218.8 -158.9C-203.2 -165 -178 -161.4 -160.5 -160.5C-143 -159.6 -133.1 -161.3 -130.2 -179.2C-127.3 -197.1 -131.4 -231 -122.1 -239.7C-112.9 -248.3 -90.4 -231.7 -75.1 -231.1C-59.8 -230.5 -51.7 -246.1 -40.4 -255.3C-29.1 -264.6 -14.6 -267.5 0 -270.4L0 0Z" fill="#00d0d4"></path><path d="M-135.2 0C-122.2 -5.7 -109.1 -11.4 -102 -16.2C-94.9 -20.9 -93.7 -24.6 -98.2 -31.9C-102.7 -39.2 -112.9 -50 -116.5 -59.4C-120.1 -68.7 -117.2 -76.5 -109.4 -79.5C-101.6 -82.5 -89 -80.7 -80.3 -80.3C-71.5 -79.8 -66.6 -80.7 -65.1 -89.6C-63.6 -98.5 -65.7 -115.5 -61.1 -119.8C-56.4 -124.2 -45.2 -115.8 -37.5 -115.6C-29.9 -115.3 -25.9 -123 -20.2 -127.7C-14.6 -132.3 -7.3 -133.7 0 -135.2L0 0Z" fill="#11f8dd"></path></g><g transform="translate(0, 0)"><path d="M540.8 0C513.6 25.5 486.5 50.9 472.1 74.8C457.8 98.7 456.3 121 462.2 150.2C468.1 179.4 481.5 215.6 474 241.5C466.5 267.5 438.2 283.2 420.7 305.6C403.2 328.1 396.6 357.2 382.4 382.4C368.3 407.6 346.5 428.9 316.2 435.3C285.9 441.6 247 432.9 213.4 418.8C179.7 404.7 151.3 385.2 132 406.1C112.6 427 102.4 488.4 82 517.5C61.5 546.7 30.8 543.8 0 540.8L0 0Z" fill="#00365f"></path><path d="M405.6 0C385.2 19.1 364.8 38.2 354.1 56.1C343.3 74 342.2 90.7 346.7 112.6C351.1 134.6 361.1 161.7 355.5 181.1C349.9 200.6 328.6 212.4 315.5 229.2C302.4 246.1 297.4 267.9 286.8 286.8C276.2 305.7 259.9 321.7 237.2 326.4C214.4 331.2 185.3 324.7 160 314.1C134.8 303.5 113.5 288.9 99 304.6C84.5 320.3 76.8 366.3 61.5 388.2C46.1 410.1 23.1 407.8 0 405.6L0 0Z" fill="#007fa8"></path><path d="M270.4 0C256.8 12.7 243.2 25.5 236.1 37.4C228.9 49.3 228.1 60.5 231.1 75.1C234.1 89.7 240.8 107.8 237 120.8C233.3 133.7 219.1 141.6 210.3 152.8C201.6 164 198.3 178.6 191.2 191.2C184.1 203.8 173.3 214.5 158.1 217.6C143 220.8 123.5 216.4 106.7 209.4C89.9 202.3 75.6 192.6 66 203.1C56.3 213.5 51.2 244.2 41 258.8C30.8 273.4 15.4 271.9 0 270.4L0 0Z" fill="#00d0d4"></path><path d="M135.2 0C128.4 6.4 121.6 12.7 118 18.7C114.4 24.7 114.1 30.2 115.6 37.5C117 44.9 120.4 53.9 118.5 60.4C116.6 66.9 109.5 70.8 105.2 76.4C100.8 82 99.1 89.3 95.6 95.6C92.1 101.9 86.6 107.2 79.1 108.8C71.5 110.4 61.8 108.2 53.3 104.7C44.9 101.2 37.8 96.3 33 101.5C28.2 106.8 25.6 122.1 20.5 129.4C15.4 136.7 7.7 135.9 0 135.2L0 0Z" fill="#11f8dd"></path></g></svg>